# xmcd CD database file
#
# Track frame offsets:
#	150
#	22420
#	91698
#	144390
#	231049
#
# Disc length: 3182 seconds
#
# Revision: 0
# Processed by: cddbd v1.5.2PL0 Copyright (c) Steve Scherf et al.
# Submitted via: CDex 1.70beta2
#
DISCID=380c6c05
DTITLE=Newtype Romance Special CD - ANI-COM RADIO ～フジワラでいいカナ～ 藤原啓治ことデカチョーロマンス祭り
DYEAR=2009
DGENRE=Radio
TTITLE0=オープニングトーク
TTITLE1=藤原刑事 小野大輔取調べ
TTITLE2=藤原刑事 日野聡取調べ
TTITLE3=愛のプロポーズ大作戦 ロマンスキッス
TTITLE4=エンディングトーク
EXTD=YEAR: 2009
EXTT0=
EXTT1=
EXTT2=
EXTT3=
EXTT4=
PLAYORDER=
